<svg xmlns="http://www.w3.org/2000/svg" viewBox="0 0 800 500" role="img" aria-labelledby="title"><title id="title">Reparación de microelectrónica sobre una placa</title><defs><linearGradient id="bg" x2="1" y2="1"><stop stop-color="#101d29"/><stop offset="1" stop-color="#34505a"/></linearGradient><pattern id="grid" width="30" height="30" patternUnits="userSpaceOnUse"><path d="M30 0H0v30" fill="none" stroke="#b8d6cd" stroke-opacity=".08"/></pattern></defs><rect width="800" height="500" fill="url(#bg)"/><rect width="800" height="500" fill="url(#grid)"/><g transform="translate(165 65) rotate(-5 235 180)"><rect width="470" height="360" rx="28" fill="#1a483e" stroke="#70a899" stroke-width="3"/><g fill="none" stroke="#9ecb8b" stroke-width="7" stroke-linecap="round"><path d="M30 48h100v70h62m65-76h87v87h95M26 177h118v74h99m58-50h66v-72m-323 172h88v-54h91m104 102v-45h103"/><path d="M132 30v36m-20-36v36m252 214v30m20-30v30"/></g><rect x="190" y="132" width="115" height="112" rx="14" fill="#a6b8a0"/><rect x="205" y="147" width="85" height="82" rx="8" fill="#19292c"/><path d="M222 164h50m-50 14h50m-50 14h36" stroke="#67cfc2" stroke-width="5" stroke-linecap="round"/><g fill="#c5d5bd" stroke="#294239" stroke-width="5"><rect x="55" y="98" width="45" height="42" rx="6"/><rect x="340" y="40" width="55" height="52" rx="7"/><rect x="350" y="251" width="70" height="55" rx="8"/></g><g fill="#67cfc2"><circle cx="34" cy="47" r="9"/><circle cx="426" cy="137" r="9"/><circle cx="143" cy="315" r="9"/><circle cx="425" cy="325" r="9"/></g></g><g transform="translate(590 48)"><circle r="43" fill="#0c171e" stroke="#67cfc2" stroke-width="3"/><path d="M-18-18 18 18m-36 0 36-36" stroke="#67cfc2" stroke-width="7" stroke-linecap="round"/></g></svg>
